<svg xmlns="http://www.w3.org/2000/svg" xmlns:xlink="http://www.w3.org/1999/xlink" width="500" zoomAndPan="magnify" viewBox="0 0 375 374.999991" height="500" preserveAspectRatio="xMidYMid meet" version="1.0"><defs><clipPath id="650f1057d2"><path d="M 84 206 L 356 206 L 356 301.027344 L 84 301.027344 Z M 84 206 " clip-rule="nonzero"/></clipPath><clipPath id="c80de81bf2"><path d="M 161 73.777344 L 174 73.777344 L 174 117 L 161 117 Z M 161 73.777344 " clip-rule="nonzero"/></clipPath></defs><path fill="#f58733" d="M 185.121094 251.195312 L 185.066406 251.160156 L 185.121094 251.203125 L 185.175781 251.234375 C 185.117188 251.195312 185.382812 251.367188 185.121094 251.195312 Z M 185.121094 251.195312 " fill-opacity="1" fill-rule="evenodd"/><path fill="#00b0f0" d="M 374.34375 258.203125 C 374.742188 258.875 374.949219 259.230469 374.949219 259.230469 L 374.34375 258.648438 L 373.738281 258.070312 L 372.527344 256.90625 L 371.921875 256.328125 L 371.316406 255.746094 L 370.714844 255.167969 L 370.105469 254.585938 L 369.5 254.007812 L 368.898438 253.425781 L 368.644531 253.1875 L 368.289062 252.851562 L 367.683594 252.277344 L 367.082031 251.699219 L 366.472656 251.125 L 365.867188 250.558594 L 365.265625 249.988281 L 364.660156 249.429688 L 364.050781 248.878906 L 363.449219 248.328125 L 362.84375 247.785156 L 362.234375 247.25 L 361.636719 246.722656 L 361.410156 246.527344 L 361.03125 246.191406 L 360.421875 245.652344 L 359.820312 245.121094 L 359.214844 244.59375 L 358.613281 244.070312 L 358.003906 243.550781 L 357.398438 243.035156 L 356.796875 242.53125 L 356.1875 242.027344 L 355.582031 241.535156 L 354.980469 241.046875 L 354.371094 240.570312 L 353.765625 240.101562 L 353.164062 239.636719 L 352.554688 239.183594 L 351.949219 238.738281 L 351.347656 238.304688 L 350.738281 237.875 L 350.132812 237.453125 L 349.53125 237.035156 L 348.925781 236.621094 L 348.316406 236.214844 L 347.714844 235.816406 L 347.109375 235.429688 L 346.5 235.042969 L 345.898438 234.667969 L 345.292969 234.304688 L 344.683594 233.945312 L 344.082031 233.597656 L 343.476562 233.257812 L 342.871094 232.925781 L 342.265625 232.601562 L 341.660156 232.289062 L 341.054688 231.984375 L 340.578125 231.746094 L 340.449219 231.6875 L 339.84375 231.398438 L 339.242188 231.125 L 338.632812 230.855469 L 338.027344 230.605469 L 337.425781 230.359375 L 336.816406 230.128906 L 336.210938 229.90625 L 335.609375 229.691406 L 335 229.492188 L 334.394531 229.300781 L 333.792969 229.121094 L 333.183594 228.949219 L 332.578125 228.792969 L 331.976562 228.644531 L 331.367188 228.511719 L 330.765625 228.386719 L 330.160156 228.273438 L 329.550781 228.167969 L 328.949219 228.078125 L 328.34375 228 L 327.75 227.929688 L 327.738281 227.929688 C 327.535156 227.90625 327.335938 227.886719 327.132812 227.863281 C 326.929688 227.847656 326.726562 227.828125 326.527344 227.8125 L 325.921875 227.773438 L 325.316406 227.746094 L 324.710938 227.734375 L 324.105469 227.730469 L 323.5 227.738281 L 322.894531 227.761719 C 322.695312 227.769531 322.492188 227.777344 322.289062 227.789062 L 321.683594 227.832031 L 321.078125 227.886719 L 320.472656 227.953125 L 319.867188 228.027344 L 319.261719 228.113281 L 318.660156 228.203125 L 318.054688 228.308594 L 317.445312 228.421875 L 316.839844 228.546875 L 316.238281 228.675781 L 315.628906 228.816406 L 315.027344 228.964844 L 314.421875 229.121094 L 314.046875 229.226562 L 313.816406 229.289062 L 313.214844 229.472656 L 312.609375 229.667969 L 312 229.871094 L 311.398438 230.082031 L 310.792969 230.296875 L 310.1875 230.527344 L 309.582031 230.761719 L 308.976562 231 L 308.371094 231.25 L 307.765625 231.507812 L 307.160156 231.769531 L 306.554688 232.042969 L 305.949219 232.324219 L 305.34375 232.609375 L 304.742188 232.90625 L 304.132812 233.207031 L 303.527344 233.519531 L 302.925781 233.832031 L 302.316406 234.152344 L 301.710938 234.480469 L 301.109375 234.816406 L 300.503906 235.15625 L 300.023438 235.433594 L 299.898438 235.507812 L 299.296875 235.878906 L 298.691406 236.246094 L 298.082031 236.613281 L 297.480469 236.980469 L 296.875 237.347656 L 296.570312 237.53125 L 296.265625 237.722656 L 295.664062 238.113281 L 295.058594 238.503906 L 294.449219 238.890625 L 293.847656 239.28125 L 293.242188 239.671875 L 292.988281 239.839844 L 292.640625 240.070312 L 292.03125 240.472656 L 291.425781 240.867188 L 290.820312 241.269531 L 290.210938 241.664062 L 289.605469 242.050781 L 289.003906 242.429688 L 288.394531 242.800781 L 287.792969 243.164062 L 287.1875 243.515625 L 286.582031 243.855469 L 285.976562 244.183594 L 285.585938 244.386719 L 285.371094 244.511719 L 284.761719 244.84375 L 284.160156 245.167969 L 283.554688 245.488281 L 282.945312 245.800781 L 282.339844 246.105469 L 281.734375 246.402344 L 281.125 246.691406 L 280.523438 246.972656 L 279.917969 247.242188 L 279.308594 247.503906 C 279.109375 247.589844 278.910156 247.671875 278.703125 247.757812 L 278.097656 247.996094 L 277.488281 248.226562 L 276.886719 248.445312 L 276.28125 248.65625 L 275.679688 248.851562 L 275.070312 249.035156 L 274.464844 249.207031 L 273.855469 249.371094 C 273.65625 249.421875 273.457031 249.476562 273.253906 249.519531 C 273.054688 249.566406 272.847656 249.613281 272.648438 249.652344 C 272.445312 249.699219 272.246094 249.738281 272.042969 249.777344 L 271.433594 249.890625 C 271.234375 249.925781 271.03125 249.953125 270.828125 249.984375 L 270.253906 250.0625 L 270.21875 250.066406 C 270.019531 250.097656 269.820312 250.125 269.617188 250.152344 C 269.417969 250.175781 269.210938 250.199219 269.011719 250.222656 C 268.808594 250.242188 268.609375 250.253906 268.40625 250.273438 C 268.203125 250.285156 268.003906 250.300781 267.796875 250.3125 C 267.597656 250.320312 267.394531 250.324219 267.191406 250.328125 C 266.988281 250.335938 266.789062 250.339844 266.582031 250.339844 C 266.382812 250.339844 266.183594 250.335938 265.980469 250.328125 C 265.78125 250.324219 265.578125 250.316406 265.375 250.308594 C 265.171875 250.300781 264.972656 250.28125 264.769531 250.269531 C 264.566406 250.257812 264.367188 250.238281 264.160156 250.214844 C 263.960938 250.195312 263.757812 250.171875 263.558594 250.148438 L 262.953125 250.0625 L 262.34375 249.964844 C 262.144531 249.929688 261.941406 249.894531 261.742188 249.851562 C 261.535156 249.8125 261.335938 249.773438 261.136719 249.722656 C 260.933594 249.679688 260.730469 249.632812 260.527344 249.578125 C 260.328125 249.53125 260.121094 249.480469 259.921875 249.421875 C 259.71875 249.371094 259.515625 249.308594 259.316406 249.253906 L 258.707031 249.070312 C 258.507812 249.003906 258.300781 248.9375 258.101562 248.867188 C 257.898438 248.800781 257.699219 248.726562 257.5 248.65625 C 257.296875 248.582031 257.09375 248.503906 256.890625 248.421875 C 256.691406 248.34375 256.484375 248.257812 256.285156 248.175781 C 256.082031 248.09375 255.878906 248 255.679688 247.914062 L 255.273438 247.726562 L 255.074219 247.632812 C 254.875 247.542969 254.667969 247.445312 254.472656 247.347656 L 253.867188 247.050781 L 253.257812 246.734375 L 252.65625 246.414062 L 252.050781 246.078125 L 251.449219 245.730469 L 250.839844 245.375 L 250.234375 245.003906 L 249.632812 244.628906 L 249.023438 244.234375 L 248.417969 243.835938 L 247.8125 243.425781 L 247.203125 243 L 246.601562 242.570312 L 245.996094 242.128906 L 245.386719 241.675781 L 244.78125 241.21875 L 244.175781 240.746094 L 243.566406 240.269531 L 243.066406 239.871094 L 242.964844 239.785156 L 242.359375 239.296875 L 241.75 238.804688 L 241.144531 238.308594 L 240.542969 237.800781 L 239.933594 237.292969 L 239.328125 236.777344 L 238.722656 236.257812 L 238.113281 235.730469 L 237.511719 235.199219 L 236.90625 234.65625 L 236.296875 234.117188 L 235.691406 233.566406 L 235.089844 233.011719 L 234.480469 232.453125 L 233.875 231.886719 L 233.441406 231.476562 L 233.273438 231.3125 L 232.667969 230.726562 L 232.0625 230.144531 L 231.460938 229.566406 L 230.855469 228.988281 L 230.246094 228.410156 L 229.644531 227.835938 L 229.039062 227.253906 L 228.433594 226.664062 L 227.828125 226.066406 C 227.621094 225.863281 227.421875 225.660156 227.222656 225.460938 C 227.015625 225.25 226.816406 225.042969 226.617188 224.835938 L 226.203125 224.402344 L 226.011719 224.210938 L 225.40625 223.601562 L 224.796875 222.988281 L 224.191406 222.367188 L 223.589844 221.734375 L 222.980469 221.097656 L 222.378906 220.449219 C 222.160156 220.214844 221.964844 219.992188 221.773438 219.785156 L 221.574219 219.566406 L 221.164062 219.128906 C 220.929688 218.871094 220.730469 218.648438 220.5625 218.457031 C 220.164062 218 219.957031 217.75 219.957031 217.75 C 219.957031 217.75 220.160156 217.769531 220.5625 217.835938 C 220.730469 217.867188 220.933594 217.902344 221.164062 217.945312 C 221.347656 217.980469 221.550781 218.023438 221.773438 218.070312 L 221.816406 218.082031 L 222.378906 218.183594 L 222.980469 218.3125 L 223.589844 218.445312 L 224.191406 218.585938 L 224.796875 218.734375 L 225.40625 218.886719 L 226.011719 219.042969 L 226.617188 219.210938 L 227.023438 219.324219 L 227.222656 219.371094 L 227.828125 219.53125 L 228.433594 219.707031 L 229.039062 219.890625 L 229.644531 220.082031 L 230.246094 220.277344 L 230.855469 220.480469 L 231.460938 220.683594 L 232.0625 220.890625 L 232.667969 221.09375 L 233.273438 221.300781 L 234.484375 221.707031 L 235.035156 221.886719 L 235.09375 221.90625 L 235.695312 222.121094 L 236.300781 222.335938 L 236.910156 222.558594 L 237.515625 222.78125 L 238.117188 223.007812 L 238.726562 223.242188 L 239.332031 223.472656 L 239.9375 223.707031 L 240.546875 223.941406 L 241.148438 224.179688 L 241.753906 224.414062 L 242.363281 224.648438 L 242.96875 224.886719 L 243.570312 225.121094 L 244.179688 225.355469 L 244.785156 225.585938 L 245.242188 225.765625 L 245.386719 225.824219 L 245.996094 226.066406 L 246.601562 226.308594 L 247.203125 226.542969 L 247.8125 226.773438 L 248.417969 227 L 249.023438 227.222656 L 249.632812 227.441406 L 250.234375 227.65625 L 250.839844 227.859375 L 251.449219 228.0625 L 252.050781 228.253906 L 252.65625 228.445312 L 253.257812 228.625 L 253.867188 228.796875 L 254.472656 228.96875 L 255.074219 229.128906 L 255.683594 229.285156 L 256.289062 229.433594 L 256.890625 229.574219 L 256.894531 229.574219 C 257.097656 229.617188 257.296875 229.65625 257.503906 229.699219 C 257.703125 229.742188 257.90625 229.78125 258.105469 229.816406 L 258.710938 229.914062 C 258.914062 229.945312 259.113281 229.976562 259.320312 230.003906 L 259.925781 230.078125 C 260.125 230.097656 260.328125 230.121094 260.53125 230.136719 C 260.734375 230.160156 260.933594 230.171875 261.140625 230.183594 L 261.746094 230.21875 C 261.949219 230.230469 262.148438 230.234375 262.347656 230.242188 C 262.550781 230.246094 262.75 230.246094 262.957031 230.246094 L 263.5625 230.238281 C 263.761719 230.234375 263.964844 230.222656 264.164062 230.214844 L 264.773438 230.179688 L 265.378906 230.132812 L 265.984375 230.070312 L 266.589844 229.996094 L 267.195312 229.910156 L 267.800781 229.804688 L 268.410156 229.6875 L 269.015625 229.5625 L 269.273438 229.503906 L 269.621094 229.414062 C 269.824219 229.359375 270.023438 229.304688 270.226562 229.246094 L 270.832031 229.074219 L 271.4375 228.886719 L 272.046875 228.6875 L 272.652344 228.484375 L 273.863281 228.054688 L 274.46875 227.835938 L 275.074219 227.605469 L 275.683594 227.378906 L 275.855469 227.316406 L 276.285156 227.109375 L 276.890625 226.828125 L 277.492188 226.546875 L 278.101562 226.269531 L 278.707031 225.988281 L 279.316406 225.710938 L 279.921875 225.425781 L 280.527344 225.136719 L 281.738281 224.53125 L 282.34375 224.21875 L 282.730469 224.011719 L 282.953125 223.898438 L 283.558594 223.585938 L 284.164062 223.265625 L 284.769531 222.941406 L 285.375 222.613281 L 285.980469 222.277344 L 286.589844 221.941406 L 287.191406 221.605469 L 287.796875 221.269531 L 288.398438 220.933594 L 289.007812 220.601562 L 289.609375 220.273438 L 289.800781 220.175781 L 290.214844 219.933594 L 290.824219 219.589844 L 292.035156 218.894531 L 292.644531 218.550781 L 293.246094 218.207031 L 293.476562 218.070312 L 293.847656 217.871094 L 294.449219 217.546875 L 295.058594 217.230469 L 295.664062 216.914062 L 296.265625 216.609375 L 296.875 216.308594 L 297.339844 216.082031 L 297.480469 216.011719 L 298.082031 215.722656 L 298.691406 215.441406 L 299.296875 215.160156 L 299.898438 214.890625 L 300.507812 214.628906 L 301.113281 214.371094 L 301.714844 214.125 L 302.324219 213.882812 L 302.929688 213.648438 L 303.53125 213.421875 L 304.140625 213.199219 L 304.746094 212.984375 L 305.347656 212.785156 L 305.957031 212.582031 L 306.558594 212.394531 L 307.164062 212.21875 L 307.769531 212.046875 L 308.375 211.882812 L 308.980469 211.730469 L 309.585938 211.582031 L 310.191406 211.445312 L 311.402344 211.195312 L 312.007812 211.085938 L 312.613281 210.988281 L 313.027344 210.921875 L 313.214844 210.894531 L 313.816406 210.808594 L 314.425781 210.730469 L 315.03125 210.664062 L 315.632812 210.609375 L 316.242188 210.5625 L 316.84375 210.527344 L 317.449219 210.503906 L 318.058594 210.488281 L 318.664062 210.484375 L 319.265625 210.496094 L 319.875 210.511719 L 320.476562 210.539062 L 321.082031 210.574219 L 321.691406 210.621094 L 322.292969 210.683594 L 322.898438 210.75 L 323.507812 210.832031 L 324.109375 210.921875 L 324.714844 211.023438 L 325.320312 211.132812 L 325.925781 211.253906 L 326.53125 211.386719 L 327.136719 211.53125 L 327.742188 211.683594 L 328.347656 211.851562 L 328.617188 211.929688 L 328.953125 212.035156 L 329.558594 212.226562 L 330.164062 212.429688 L 330.769531 212.648438 L 331.375 212.875 L 331.980469 213.117188 L 332.582031 213.363281 L 333.1875 213.625 L 333.796875 213.902344 L 334.398438 214.183594 L 335.003906 214.476562 C 335.210938 214.578125 335.410156 214.683594 335.613281 214.78125 L 336.214844 215.101562 L 336.820312 215.429688 L 337.429688 215.769531 L 338.03125 216.125 C 338.234375 216.246094 338.4375 216.367188 338.636719 216.492188 L 339.246094 216.871094 C 339.445312 217 339.644531 217.132812 339.847656 217.265625 C 340.050781 217.394531 340.253906 217.53125 340.453125 217.671875 C 340.65625 217.808594 340.859375 217.949219 341.0625 218.089844 L 341.664062 218.519531 C 341.867188 218.667969 342.070312 218.816406 342.269531 218.964844 L 342.605469 219.214844 L 342.878906 219.417969 L 343.480469 219.882812 L 344.085938 220.355469 L 344.6875 220.847656 L 345.296875 221.34375 L 345.902344 221.851562 L 346.503906 222.371094 L 347.113281 222.902344 L 347.71875 223.441406 L 348.320312 223.996094 L 348.929688 224.5625 L 349.535156 225.136719 L 350.136719 225.730469 L 350.746094 226.332031 L 351.351562 226.949219 L 351.953125 227.578125 L 352.5625 228.21875 L 353.167969 228.871094 L 353.769531 229.539062 L 354.085938 229.894531 L 354.375 230.21875 L 354.984375 230.90625 L 355.585938 231.601562 L 356.191406 232.304688 L 356.800781 233.023438 L 357.402344 233.75 L 358.007812 234.488281 L 358.617188 235.230469 L 359.21875 235.988281 L 359.824219 236.753906 L 360.429688 237.53125 L 361.035156 238.316406 L 361.640625 239.113281 L 362.238281 239.921875 L 362.847656 240.742188 L 363.453125 241.570312 L 364.054688 242.410156 L 364.664062 243.253906 L 365.269531 244.113281 L 365.871094 244.980469 L 366.480469 245.859375 L 367.085938 246.746094 L 367.6875 247.636719 L 368.296875 248.542969 L 368.902344 249.453125 L 369.503906 250.371094 L 369.539062 250.414062 L 370.113281 251.316406 L 370.71875 252.269531 L 371.320312 253.234375 L 371.925781 254.207031 L 372.53125 255.191406 L 373.136719 256.179688 L 373.742188 257.179688 L 374.347656 258.191406 Z M 374.34375 258.203125 " fill-opacity="1" fill-rule="evenodd"/><g clip-path="url(#650f1057d2)"><path fill="#128cba" d="M 85.226562 248.566406 L 84.167969 248.070312 L 85.226562 247.75 L 86.289062 247.433594 L 87.351562 247.109375 L 87.355469 247.109375 L 88.414062 246.824219 L 90.539062 246.246094 L 91.171875 246.078125 C 91.308594 246.03125 91.453125 245.988281 91.601562 245.941406 C 91.949219 245.828125 92.300781 245.691406 92.664062 245.554688 C 93.011719 245.417969 93.363281 245.273438 93.722656 245.125 L 94.785156 244.695312 C 95.132812 244.554688 95.488281 244.414062 95.847656 244.28125 L 96.191406 244.152344 L 96.90625 243.871094 L 97.96875 243.449219 L 99.027344 243.03125 L 99.09375 243.003906 L 100.089844 242.507812 L 101.152344 241.980469 L 102.210938 241.453125 L 102.28125 241.417969 L 103.273438 240.929688 L 105.398438 239.882812 L 105.71875 239.726562 L 106.460938 239.285156 L 107.519531 238.660156 L 108.582031 238.035156 L 109.367188 237.574219 L 109.644531 237.414062 C 110 237.210938 110.355469 237 110.710938 236.785156 C 111.0625 236.574219 111.417969 236.359375 111.773438 236.140625 C 112.121094 235.925781 112.480469 235.703125 112.832031 235.476562 C 113.183594 235.253906 113.539062 235.027344 113.894531 234.796875 C 114.246094 234.570312 114.601562 234.339844 114.957031 234.105469 L 116.015625 233.40625 L 117.078125 232.6875 L 118.136719 231.964844 L 119.199219 231.230469 L 120.257812 230.496094 L 121.320312 229.75 L 122.382812 229 L 123.441406 228.242188 L 124.503906 227.484375 L 125.5625 226.726562 L 126.082031 226.355469 L 126.625 225.972656 L 127.691406 225.214844 L 128.75 224.460938 L 129.8125 223.707031 L 130.871094 222.953125 L 131.933594 222.207031 L 132.996094 221.464844 L 134.058594 220.726562 L 135.121094 220 L 136.183594 219.28125 L 137.242188 218.574219 L 138.304688 217.878906 L 139.363281 217.199219 C 139.71875 216.976562 140.070312 216.757812 140.425781 216.535156 C 140.777344 216.316406 141.132812 216.097656 141.484375 215.886719 C 141.839844 215.671875 142.195312 215.460938 142.550781 215.253906 C 142.902344 215.046875 143.257812 214.84375 143.613281 214.636719 C 143.964844 214.4375 144.320312 214.238281 144.671875 214.039062 C 145.027344 213.84375 145.378906 213.652344 145.734375 213.464844 C 146.082031 213.277344 146.441406 213.089844 146.796875 212.90625 L 146.800781 212.90625 C 147.152344 212.722656 147.507812 212.542969 147.859375 212.367188 C 148.214844 212.191406 148.566406 212.019531 148.921875 211.851562 C 149.273438 211.679688 149.628906 211.515625 149.980469 211.359375 C 150.335938 211.195312 150.6875 211.039062 151.042969 210.886719 C 151.398438 210.734375 151.75 210.585938 152.105469 210.4375 C 152.457031 210.292969 152.8125 210.148438 153.167969 210.011719 C 153.523438 209.875 153.875 209.738281 154.230469 209.609375 C 154.582031 209.480469 154.9375 209.355469 155.289062 209.234375 C 155.644531 209.109375 156 208.992188 156.351562 208.882812 C 156.707031 208.769531 157.058594 208.660156 157.414062 208.5625 C 157.765625 208.457031 158.121094 208.355469 158.472656 208.261719 C 158.828125 208.164062 159.179688 208.074219 159.535156 207.984375 C 159.886719 207.898438 160.242188 207.816406 160.59375 207.738281 C 160.949219 207.660156 161.300781 207.585938 161.65625 207.515625 C 162.011719 207.445312 162.363281 207.382812 162.71875 207.324219 C 163.070312 207.265625 163.425781 207.210938 163.777344 207.160156 C 164.132812 207.109375 164.484375 207.066406 164.839844 207.027344 C 165.191406 206.984375 165.546875 206.949219 165.898438 206.917969 C 166.253906 206.886719 166.605469 206.859375 166.960938 206.839844 C 167.3125 206.816406 167.667969 206.800781 168.023438 206.785156 C 168.375 206.777344 168.730469 206.769531 169.082031 206.769531 C 169.4375 206.769531 169.789062 206.769531 170.144531 206.777344 C 170.496094 206.785156 170.851562 206.800781 171.203125 206.820312 C 171.558594 206.84375 171.910156 206.863281 172.265625 206.894531 L 172.773438 206.9375 C 172.960938 206.9375 173.144531 206.949219 173.332031 206.953125 C 173.683594 206.96875 174.039062 206.996094 174.390625 207.03125 C 174.746094 207.066406 175.097656 207.109375 175.453125 207.164062 C 175.804688 207.222656 176.160156 207.285156 176.511719 207.351562 C 176.867188 207.421875 177.21875 207.5 177.574219 207.585938 C 177.925781 207.667969 178.28125 207.757812 178.636719 207.855469 C 178.988281 207.949219 179.34375 208.050781 179.695312 208.15625 L 179.816406 208.191406 L 180.761719 208.453125 L 181.820312 208.753906 L 182.882812 209.050781 L 183.371094 209.183594 L 183.949219 209.445312 L 185.007812 209.9375 L 186.070312 210.425781 L 186.859375 210.785156 L 187.128906 210.914062 L 188.191406 211.414062 L 189.253906 211.910156 L 190.3125 212.414062 L 190.371094 212.445312 L 191.253906 212.867188 L 191.375 212.9375 L 192.238281 213.441406 L 192.433594 213.5625 L 193.496094 214.199219 L 193.777344 214.367188 L 194.558594 214.855469 L 195.617188 215.511719 L 196.683594 216.164062 C 197.035156 216.386719 197.386719 216.609375 197.742188 216.835938 C 198.09375 217.0625 198.445312 217.292969 198.804688 217.535156 C 199.152344 217.769531 199.507812 218.011719 199.867188 218.265625 L 200.003906 218.367188 L 200.925781 219.03125 L 201.988281 219.792969 L 203.054688 220.558594 L 204.113281 221.320312 L 205.175781 222.085938 L 206.234375 222.84375 L 206.566406 223.082031 L 207.300781 223.644531 L 208.367188 224.464844 L 209.425781 225.289062 L 210.488281 226.128906 L 211.546875 226.980469 C 211.902344 227.261719 212.257812 227.554688 212.609375 227.847656 L 212.863281 228.054688 L 213.671875 228.75 L 214.734375 229.65625 L 215.796875 230.570312 L 216.859375 231.480469 L 217.917969 232.386719 L 218.980469 233.300781 L 220.039062 234.210938 L 221.105469 235.117188 L 222.167969 236.03125 L 223.226562 236.941406 L 224.289062 237.855469 L 225.074219 238.527344 L 225.355469 238.773438 L 226.414062 239.726562 L 227.476562 240.671875 L 228.535156 241.613281 L 229.597656 242.546875 L 230.65625 243.472656 L 231.71875 244.386719 L 232.78125 245.296875 L 233.839844 246.195312 L 234.902344 247.078125 L 235.960938 247.953125 C 236.320312 248.242188 236.675781 248.527344 237.023438 248.8125 C 237.382812 249.09375 237.734375 249.378906 238.085938 249.65625 C 238.441406 249.9375 238.792969 250.210938 239.144531 250.488281 C 239.503906 250.761719 239.851562 251.03125 240.207031 251.296875 C 240.5625 251.5625 240.917969 251.832031 241.265625 252.09375 C 241.621094 252.355469 241.980469 252.609375 242.328125 252.867188 C 242.6875 253.121094 243.039062 253.375 243.390625 253.625 C 243.746094 253.871094 244.101562 254.117188 244.449219 254.355469 C 244.808594 254.597656 245.15625 254.832031 245.511719 255.0625 C 245.863281 255.296875 246.21875 255.523438 246.570312 255.746094 C 246.925781 255.972656 247.28125 256.191406 247.632812 256.410156 L 247.832031 256.53125 C 248.121094 256.695312 248.410156 256.867188 248.691406 257.042969 C 249.046875 257.257812 249.40625 257.476562 249.753906 257.675781 C 250.019531 257.828125 250.285156 257.976562 250.546875 258.109375 L 250.816406 258.222656 L 251.875 258.683594 L 252.9375 259.144531 L 253.238281 259.277344 C 253.492188 259.421875 253.746094 259.550781 254.003906 259.667969 C 254.359375 259.835938 254.714844 259.980469 255.0625 260.109375 C 255.417969 260.238281 255.769531 260.355469 256.125 260.464844 C 256.476562 260.574219 256.832031 260.671875 257.183594 260.777344 C 257.539062 260.882812 257.890625 260.988281 258.246094 261.101562 L 258.558594 261.199219 C 258.808594 261.296875 259.058594 261.378906 259.304688 261.445312 C 259.660156 261.539062 260.015625 261.609375 260.367188 261.664062 C 260.648438 261.703125 260.925781 261.726562 261.207031 261.742188 L 261.429688 261.773438 L 262.488281 261.898438 L 263.550781 262.023438 L 263.84375 262.058594 C 264.101562 262.089844 264.359375 262.113281 264.617188 262.121094 C 264.96875 262.132812 265.324219 262.132812 265.675781 262.121094 C 266.03125 262.113281 266.382812 262.09375 266.738281 262.070312 C 267.089844 262.046875 267.445312 262.019531 267.796875 262.003906 C 268.152344 261.984375 268.503906 261.972656 268.859375 261.972656 L 269.101562 261.972656 C 269.378906 261.9375 269.648438 261.902344 269.917969 261.859375 C 270.277344 261.800781 270.632812 261.746094 270.980469 261.679688 C 271.339844 261.613281 271.691406 261.546875 272.046875 261.464844 C 272.398438 261.390625 272.753906 261.308594 273.105469 261.222656 C 273.460938 261.136719 273.8125 261.039062 274.167969 260.941406 C 274.519531 260.847656 274.875 260.742188 275.230469 260.632812 C 275.582031 260.523438 275.9375 260.40625 276.289062 260.289062 C 276.644531 260.167969 276.996094 260.042969 277.351562 259.914062 C 277.707031 259.78125 278.0625 259.644531 278.414062 259.503906 C 278.769531 259.359375 279.121094 259.214844 279.476562 259.0625 L 279.550781 259.03125 C 279.886719 258.894531 280.210938 258.773438 280.539062 258.65625 C 280.886719 258.53125 281.242188 258.398438 281.597656 258.242188 C 281.78125 258.164062 281.96875 258.074219 282.160156 257.972656 L 282.660156 257.722656 L 283.71875 257.1875 L 284.78125 256.652344 L 286.90625 255.589844 L 287.96875 255.0625 L 289.027344 254.535156 L 290.550781 253.773438 L 291.152344 253.480469 L 293.277344 252.441406 L 294.335938 251.921875 L 295.402344 251.402344 L 296.464844 250.886719 L 298.589844 249.863281 L 299.652344 249.355469 L 300.710938 248.859375 L 301.777344 248.363281 L 302.839844 247.875 L 303.902344 247.390625 L 304.964844 246.917969 L 306.023438 246.453125 L 307.085938 246 C 307.441406 245.851562 307.796875 245.695312 308.152344 245.554688 L 309.210938 245.121094 L 310.277344 244.699219 C 310.632812 244.558594 310.984375 244.417969 311.332031 244.289062 L 311.601562 244.1875 L 312.398438 243.894531 C 312.757812 243.769531 313.109375 243.648438 313.460938 243.523438 C 313.8125 243.402344 314.171875 243.285156 314.523438 243.171875 C 314.878906 243.058594 315.238281 242.945312 315.585938 242.839844 C 315.941406 242.730469 316.292969 242.628906 316.648438 242.53125 C 317.003906 242.429688 317.359375 242.339844 317.707031 242.246094 C 318.066406 242.15625 318.417969 242.066406 318.773438 241.984375 C 319.132812 241.902344 319.484375 241.824219 319.835938 241.75 C 320.191406 241.675781 320.546875 241.609375 320.898438 241.542969 C 321.253906 241.480469 321.609375 241.421875 321.960938 241.371094 C 322.3125 241.316406 322.667969 241.269531 323.019531 241.226562 C 323.378906 241.183594 323.734375 241.148438 324.082031 241.117188 C 324.441406 241.085938 324.792969 241.058594 325.148438 241.042969 C 325.503906 241.023438 325.859375 241.011719 326.207031 241.007812 C 326.566406 241 326.917969 241.007812 327.273438 241.011719 C 327.632812 241.019531 327.984375 241.039062 328.335938 241.066406 C 328.691406 241.089844 329.046875 241.121094 329.394531 241.164062 C 329.75 241.203125 330.105469 241.257812 330.457031 241.3125 L 330.910156 241.390625 C 331.117188 241.425781 331.320312 241.464844 331.519531 241.503906 C 331.878906 241.574219 332.234375 241.65625 332.582031 241.746094 C 332.941406 241.835938 333.296875 241.9375 333.648438 242.046875 C 334.003906 242.15625 334.359375 242.273438 334.707031 242.398438 C 335.066406 242.53125 335.421875 242.667969 335.769531 242.8125 C 336.132812 242.960938 336.480469 243.117188 336.832031 243.285156 C 337.191406 243.453125 337.546875 243.628906 337.894531 243.8125 C 338.257812 244 338.605469 244.199219 338.957031 244.402344 C 339.320312 244.609375 339.671875 244.828125 340.023438 245.050781 C 340.382812 245.28125 340.734375 245.519531 341.082031 245.757812 C 341.445312 246.007812 341.792969 246.265625 342.144531 246.527344 C 342.503906 246.796875 342.863281 247.074219 343.203125 247.355469 C 343.570312 247.648438 343.925781 247.949219 344.269531 248.246094 C 344.632812 248.558594 344.980469 248.871094 345.320312 249.1875 L 345.335938 249.195312 L 347.460938 251.226562 L 347.890625 251.636719 L 348.515625 252.375 L 349.578125 253.613281 L 350.03125 254.140625 C 350.238281 254.378906 350.445312 254.613281 350.644531 254.84375 C 351.019531 255.285156 351.371094 255.710938 351.703125 256.128906 C 352.085938 256.601562 352.4375 257.0625 352.765625 257.5 C 352.957031 257.757812 353.140625 258.011719 353.320312 258.257812 L 353.832031 258.957031 L 354.890625 260.433594 L 355.953125 261.90625 L 354.890625 261.425781 L 353.832031 260.949219 L 352.816406 260.492188 L 352.765625 260.46875 C 352.4375 260.296875 352.085938 260.121094 351.703125 259.949219 C 351.371094 259.796875 351.015625 259.644531 350.644531 259.496094 C 350.308594 259.359375 349.949219 259.222656 349.578125 259.097656 L 349.09375 258.933594 L 348.515625 258.710938 C 348.175781 258.582031 347.820312 258.453125 347.457031 258.332031 C 347.113281 258.210938 346.753906 258.09375 346.394531 257.984375 C 346.046875 257.878906 345.691406 257.777344 345.332031 257.679688 C 344.980469 257.589844 344.628906 257.5 344.269531 257.417969 L 344.089844 257.378906 C 343.800781 257.308594 343.503906 257.25 343.203125 257.1875 C 342.855469 257.117188 342.5 257.046875 342.144531 256.988281 C 341.792969 256.925781 341.441406 256.875 341.082031 256.824219 C 340.730469 256.78125 340.375 256.742188 340.023438 256.710938 C 339.671875 256.679688 339.3125 256.660156 338.957031 256.644531 C 338.605469 256.632812 338.25 256.625 337.894531 256.628906 C 337.546875 256.632812 337.1875 256.640625 336.832031 256.664062 C 336.480469 256.683594 336.128906 256.710938 335.769531 256.75 C 335.421875 256.789062 335.066406 256.839844 334.707031 256.894531 C 334.355469 256.953125 334 257.019531 333.648438 257.09375 C 333.292969 257.175781 332.941406 257.257812 332.582031 257.351562 C 332.230469 257.449219 331.875 257.558594 331.519531 257.675781 L 331.132812 257.804688 C 330.910156 257.886719 330.6875 257.964844 330.457031 258.046875 C 330.105469 258.175781 329.75 258.316406 329.394531 258.464844 C 329.042969 258.613281 328.691406 258.769531 328.335938 258.941406 C 327.980469 259.105469 327.628906 259.277344 327.273438 259.460938 C 326.917969 259.640625 326.566406 259.828125 326.207031 260.023438 C 325.855469 260.214844 325.5 260.417969 325.148438 260.628906 C 324.792969 260.832031 324.441406 261.050781 324.082031 261.273438 C 323.734375 261.492188 323.375 261.71875 323.019531 261.949219 C 322.671875 262.183594 322.3125 262.421875 321.960938 262.660156 C 321.605469 262.902344 321.253906 263.148438 320.898438 263.402344 C 320.546875 263.65625 320.191406 263.910156 319.835938 264.171875 C 319.480469 264.429688 319.125 264.695312 318.773438 264.960938 C 318.417969 265.226562 318.066406 265.496094 317.707031 265.777344 C 317.359375 266.046875 317 266.324219 316.648438 266.609375 L 315.585938 267.460938 L 315.144531 267.816406 L 314.523438 268.320312 L 313.460938 269.191406 L 312.398438 270.070312 L 311.332031 270.953125 L 310.277344 271.847656 L 309.210938 272.746094 L 308.152344 273.644531 L 307.085938 274.546875 L 306.023438 275.453125 L 304.964844 276.359375 L 301.777344 279.066406 L 300.710938 279.964844 L 299.652344 280.859375 L 298.589844 281.75 L 297.527344 282.636719 L 296.464844 283.511719 L 295.695312 284.140625 L 295.402344 284.390625 C 295.050781 284.6875 294.695312 284.984375 294.335938 285.269531 C 293.984375 285.5625 293.628906 285.847656 293.277344 286.128906 L 292.214844 286.976562 L 291.152344 287.8125 L 290.347656 288.445312 L 290.089844 288.652344 L 289.027344 289.488281 L 287.96875 290.328125 L 287.628906 290.59375 C 287.390625 290.78125 287.152344 290.964844 286.902344 291.144531 C 286.554688 291.390625 286.199219 291.625 285.835938 291.867188 C 285.484375 292.101562 285.125 292.332031 284.777344 292.574219 L 284.550781 292.730469 C 284.269531 292.9375 283.996094 293.136719 283.714844 293.328125 C 283.367188 293.578125 283.007812 293.8125 282.65625 294.046875 C 282.300781 294.273438 281.949219 294.5 281.59375 294.714844 C 281.242188 294.929688 280.886719 295.132812 280.53125 295.339844 C 280.179688 295.539062 279.824219 295.734375 279.472656 295.921875 C 279.117188 296.109375 278.765625 296.292969 278.410156 296.472656 C 278.058594 296.652344 277.703125 296.824219 277.347656 296.988281 C 276.996094 297.152344 276.636719 297.316406 276.285156 297.472656 C 275.929688 297.628906 275.578125 297.78125 275.222656 297.929688 C 274.871094 298.078125 274.515625 298.222656 274.164062 298.363281 C 273.808594 298.5 273.457031 298.640625 273.101562 298.773438 C 272.75 298.90625 272.394531 299.035156 272.042969 299.164062 L 271.269531 299.433594 L 270.976562 299.527344 C 270.621094 299.636719 270.269531 299.742188 269.914062 299.835938 C 269.5625 299.933594 269.207031 300.023438 268.855469 300.105469 C 268.5 300.191406 268.148438 300.269531 267.792969 300.34375 C 267.441406 300.414062 267.085938 300.480469 266.734375 300.539062 C 266.378906 300.601562 266.023438 300.65625 265.671875 300.703125 C 265.316406 300.753906 264.964844 300.796875 264.609375 300.835938 C 264.257812 300.875 263.902344 300.90625 263.550781 300.9375 C 263.195312 300.960938 262.84375 300.984375 262.488281 301 C 262.136719 301.019531 261.78125 301.027344 261.429688 301.03125 C 261.074219 301.039062 260.722656 301.039062 260.367188 301.03125 C 260.011719 301.027344 259.660156 301.015625 259.304688 301 C 258.953125 300.988281 258.597656 300.964844 258.246094 300.941406 C 257.890625 300.914062 257.539062 300.882812 257.183594 300.847656 C 256.832031 300.8125 256.476562 300.769531 256.125 300.726562 C 255.769531 300.679688 255.417969 300.625 255.0625 300.570312 C 254.710938 300.511719 254.355469 300.453125 254 300.386719 C 253.648438 300.320312 253.292969 300.246094 252.941406 300.171875 C 252.585938 300.09375 252.230469 300.015625 251.878906 299.929688 C 251.527344 299.839844 251.171875 299.75 250.820312 299.652344 C 250.464844 299.558594 250.113281 299.453125 249.757812 299.347656 C 249.398438 299.238281 249.050781 299.125 248.699219 299.011719 C 248.339844 298.894531 247.984375 298.773438 247.636719 298.644531 C 247.28125 298.519531 246.925781 298.382812 246.574219 298.246094 C 246.21875 298.105469 245.863281 297.960938 245.515625 297.8125 C 245.160156 297.664062 244.804688 297.507812 244.453125 297.351562 C 244.097656 297.1875 243.746094 297.023438 243.394531 296.851562 C 243.035156 296.683594 242.679688 296.503906 242.332031 296.320312 L 242.273438 296.289062 C 241.9375 296.125 241.601562 295.957031 241.269531 295.789062 C 240.914062 295.609375 240.558594 295.421875 240.210938 295.234375 C 239.855469 295.042969 239.5 294.851562 239.148438 294.648438 C 238.792969 294.449219 238.441406 294.25 238.089844 294.042969 C 237.734375 293.839844 237.375 293.625 237.027344 293.410156 C 236.675781 293.199219 236.320312 292.980469 235.96875 292.753906 C 235.609375 292.53125 235.253906 292.304688 234.90625 292.070312 C 234.546875 291.835938 234.195312 291.605469 233.84375 291.363281 C 233.492188 291.125 233.132812 290.886719 232.785156 290.640625 C 232.429688 290.398438 232.074219 290.144531 231.722656 289.894531 C 231.363281 289.640625 231.015625 289.382812 230.664062 289.128906 C 230.308594 288.867188 229.957031 288.605469 229.601562 288.34375 C 229.242188 288.074219 228.894531 287.808594 228.539062 287.539062 C 228.1875 287.269531 227.828125 286.996094 227.480469 286.71875 C 227.125 286.441406 226.773438 286.164062 226.417969 285.882812 L 225.359375 285.03125 L 224.296875 284.167969 L 223.234375 283.289062 L 222.175781 282.40625 L 221.113281 281.511719 L 220.050781 280.609375 L 217.925781 278.789062 L 216.867188 277.871094 L 216.179688 277.28125 L 215.804688 276.945312 L 214.746094 275.996094 L 213.679688 275.050781 L 212.617188 274.105469 L 211.558594 273.15625 L 210.496094 272.210938 L 209.4375 271.265625 L 208.375 270.316406 L 207.308594 269.371094 L 206.25 268.425781 L 205.1875 267.476562 L 204.328125 266.714844 L 204.121094 266.542969 L 203.0625 265.648438 L 201.996094 264.746094 L 200.933594 263.835938 L 199.875 262.914062 L 198.8125 261.980469 L 198.539062 261.742188 L 197.75 261.09375 L 196.6875 260.226562 L 195.621094 259.359375 L 194.5625 258.488281 L 193.5 257.617188 L 192.964844 257.179688 C 192.792969 257.035156 192.617188 256.894531 192.441406 256.75 C 192.09375 256.476562 191.738281 256.203125 191.378906 255.929688 C 191.03125 255.667969 190.671875 255.410156 190.316406 255.148438 L 189.257812 254.386719 C 188.898438 254.132812 188.546875 253.875 188.195312 253.617188 C 187.839844 253.355469 187.480469 253.089844 187.136719 252.824219 L 187.011719 252.734375 L 186.074219 252.023438 L 185.515625 251.597656 L 185.140625 251.3125 L 185.011719 251.214844 L 184.984375 251.195312 L 184.320312 250.789062 L 183.953125 250.5625 L 182.890625 249.902344 L 181.832031 249.242188 L 181.683594 249.152344 L 180.769531 248.574219 L 179.707031 247.902344 L 179.054688 247.488281 L 178.648438 247.324219 L 177.585938 246.882812 L 176.527344 246.441406 L 176.398438 246.390625 L 175.464844 245.972656 L 174.40625 245.492188 L 173.761719 245.203125 C 173.621094 245.132812 173.480469 245.078125 173.339844 245.023438 C 172.984375 244.894531 172.632812 244.800781 172.277344 244.71875 C 171.921875 244.636719 171.566406 244.558594 171.21875 244.449219 L 171.109375 244.417969 C 170.789062 244.328125 170.476562 244.238281 170.152344 244.160156 C 169.796875 244.070312 169.445312 243.984375 169.089844 243.902344 C 168.738281 243.824219 168.382812 243.75 168.03125 243.679688 C 167.675781 243.613281 167.324219 243.550781 166.96875 243.492188 C 166.617188 243.4375 166.261719 243.386719 165.910156 243.335938 C 165.554688 243.289062 165.203125 243.25 164.847656 243.210938 C 164.492188 243.171875 164.140625 243.140625 163.785156 243.113281 C 163.433594 243.089844 163.078125 243.066406 162.726562 243.050781 C 162.371094 243.03125 162.019531 243.019531 161.664062 243.011719 C 161.3125 243 160.957031 242.996094 160.605469 242.996094 C 160.25 242.996094 159.898438 243.003906 159.542969 243.015625 C 159.191406 243.023438 158.835938 243.035156 158.480469 243.058594 C 158.128906 243.074219 157.773438 243.097656 157.421875 243.125 C 157.066406 243.148438 156.714844 243.179688 156.359375 243.214844 C 156.007812 243.25 155.652344 243.289062 155.300781 243.328125 C 154.945312 243.371094 154.59375 243.414062 154.238281 243.464844 C 153.886719 243.515625 153.53125 243.566406 153.179688 243.625 C 152.820312 243.683594 152.464844 243.742188 152.113281 243.804688 C 151.757812 243.871094 151.40625 243.933594 151.050781 244.003906 C 150.699219 244.074219 150.34375 244.148438 149.992188 244.222656 L 149.847656 244.253906 L 148.929688 244.453125 C 148.578125 244.53125 148.222656 244.609375 147.867188 244.695312 C 147.515625 244.777344 147.160156 244.863281 146.808594 244.949219 L 145.746094 245.222656 L 144.6875 245.5 L 143.625 245.792969 L 142.566406 246.09375 L 141.5 246.402344 L 140.4375 246.71875 L 139.378906 247.035156 L 137.253906 247.691406 L 136.195312 248.023438 L 135.132812 248.355469 L 134.074219 248.679688 L 133.007812 249.007812 L 131.945312 249.332031 L 130.886719 249.648438 L 129.824219 249.964844 L 129.152344 250.15625 L 128.765625 250.265625 L 127.703125 250.566406 L 126.636719 250.859375 L 125.578125 251.136719 L 124.515625 251.410156 L 123.457031 251.671875 L 122.394531 251.925781 L 121.332031 252.167969 C 120.976562 252.246094 120.621094 252.324219 120.273438 252.398438 C 119.914062 252.472656 119.5625 252.546875 119.210938 252.617188 C 118.855469 252.683594 118.5 252.75 118.152344 252.816406 C 117.792969 252.882812 117.4375 252.941406 117.089844 253.003906 C 116.730469 253.066406 116.378906 253.121094 116.027344 253.175781 C 115.671875 253.230469 115.316406 253.277344 114.96875 253.328125 C 114.609375 253.375 114.257812 253.417969 113.90625 253.457031 C 113.550781 253.5 113.195312 253.535156 112.847656 253.570312 C 112.488281 253.605469 112.136719 253.636719 111.785156 253.65625 C 111.425781 253.683594 111.074219 253.707031 110.726562 253.722656 L 110.710938 253.722656 L 109.660156 253.773438 L 108.597656 253.824219 L 107.539062 253.875 L 106.683594 253.917969 L 106.476562 253.914062 C 106.117188 253.90625 105.765625 253.890625 105.414062 253.871094 C 105.058594 253.851562 104.703125 253.820312 104.355469 253.792969 L 103.289062 253.703125 L 102.917969 253.671875 L 102.230469 253.609375 L 100.105469 253.421875 L 99.472656 253.367188 L 99.042969 253.296875 C 98.683594 253.230469 98.332031 253.152344 97.980469 253.070312 L 96.921875 252.808594 C 96.714844 252.753906 96.515625 252.707031 96.3125 252.664062 L 95.859375 252.550781 L 94.796875 252.292969 C 94.4375 252.207031 94.078125 252.121094 93.738281 252.039062 C 93.375 251.949219 93.015625 251.855469 92.675781 251.757812 C 92.308594 251.648438 91.957031 251.535156 91.617188 251.410156 C 91.433594 251.339844 91.253906 251.273438 91.078125 251.195312 L 90.550781 250.964844 L 89.488281 250.503906 L 88.429688 250.042969 L 87.367188 249.578125 L 87.316406 249.558594 L 86.308594 249.085938 L 85.246094 248.589844 Z M 85.226562 248.566406 " fill-opacity="1" fill-rule="evenodd"/></g><path fill="#00b0f0" d="M 0.664062 220.542969 C 0.265625 219.925781 0.0585938 219.589844 0.0507812 219.570312 C 0.0585938 219.578125 0.292969 219.699219 0.722656 219.9375 L 1.390625 220.3125 L 2.0625 220.699219 L 2.730469 221.089844 L 3.398438 221.484375 L 4.066406 221.882812 L 4.734375 222.289062 L 5.402344 222.699219 L 6.070312 223.113281 L 6.738281 223.53125 L 7.40625 223.957031 L 7.757812 224.179688 L 8.074219 224.386719 L 8.742188 224.820312 L 9.410156 225.246094 L 10.078125 225.679688 L 10.746094 226.109375 L 11.414062 226.542969 L 12.742188 227.425781 L 13.40625 227.875 L 14.070312 228.328125 L 14.734375 228.785156 L 15.398438 229.25 L 16.0625 229.726562 L 16.421875 229.984375 L 16.722656 230.207031 L 17.386719 230.6875 L 18.050781 231.152344 L 18.714844 231.613281 L 19.378906 232.0625 L 20.042969 232.503906 L 20.710938 232.945312 L 21.375 233.378906 L 22.042969 233.808594 L 22.710938 234.242188 L 23.378906 234.667969 L 24.042969 235.101562 L 24.710938 235.53125 L 25.371094 235.964844 L 26.039062 236.402344 L 27.367188 237.285156 L 27.574219 237.425781 L 28.03125 237.714844 L 28.699219 238.140625 L 29.367188 238.574219 L 30.03125 239.015625 L 31.359375 239.914062 L 32.023438 240.367188 L 32.6875 240.824219 L 33.347656 241.28125 L 34.011719 241.742188 L 35.339844 242.65625 L 36.667969 243.5625 L 37.332031 244.011719 L 37.996094 244.453125 L 38.664062 244.890625 L 39.332031 245.320312 L 40 245.746094 L 40.644531 246.152344 L 40.660156 246.164062 L 41.335938 246.550781 L 43.339844 247.746094 L 44.007812 248.152344 L 46.011719 249.382812 L 48.683594 251.039062 L 49.351562 251.457031 L 50.019531 251.867188 L 50.6875 252.269531 L 51.359375 252.675781 L 52.027344 253.078125 L 52.695312 253.476562 L 54.03125 254.265625 L 54.703125 254.648438 L 55.214844 254.941406 L 55.375 255.019531 L 56.050781 255.34375 L 56.726562 255.679688 L 57.40625 256.023438 L 58.078125 256.378906 L 58.75 256.738281 L 59.421875 257.105469 L 60.765625 257.847656 L 61.4375 258.214844 L 62.113281 258.585938 L 62.785156 258.957031 L 63.457031 259.320312 L 64.132812 259.683594 L 64.804688 260.039062 L 65.480469 260.386719 L 66.160156 260.71875 L 66.835938 261.046875 L 67.511719 261.367188 L 68.191406 261.667969 L 68.871094 261.957031 L 69.554688 262.226562 L 70.234375 262.480469 L 70.773438 262.667969 L 70.921875 262.722656 L 71.601562 262.992188 L 72.285156 263.273438 L 72.964844 263.554688 L 73.644531 263.839844 L 74.328125 264.125 L 75.007812 264.40625 L 75.6875 264.691406 L 76.371094 264.96875 L 77.050781 265.238281 L 77.730469 265.5 L 78.417969 265.757812 L 78.757812 265.882812 L 79.109375 265.972656 L 79.796875 266.15625 L 80.488281 266.339844 L 81.175781 266.523438 L 81.867188 266.707031 L 82.554688 266.890625 L 83.246094 267.070312 L 83.9375 267.253906 L 84.625 267.4375 L 85.316406 267.621094 L 86.003906 267.804688 L 86.695312 267.988281 L 86.796875 268.019531 L 87.390625 268.128906 L 88.089844 268.253906 L 88.785156 268.375 L 89.484375 268.496094 L 90.882812 268.707031 L 91.582031 268.808594 L 92.277344 268.898438 L 92.976562 268.988281 L 93.679688 269.066406 L 94.378906 269.136719 L 95.082031 269.199219 L 95.785156 269.257812 L 96.488281 269.300781 L 97.195312 269.339844 L 97.902344 269.367188 L 98.609375 269.382812 L 99.316406 269.394531 L 100.023438 269.382812 L 100.734375 269.367188 L 101.449219 269.339844 L 102.160156 269.300781 L 102.8125 269.25 L 102.875 269.246094 L 103.585938 269.207031 L 104.296875 269.15625 L 105.015625 269.101562 L 105.726562 269.035156 L 106.441406 268.957031 L 107.15625 268.871094 L 107.878906 268.777344 L 108.597656 268.671875 L 109.320312 268.558594 L 110.039062 268.4375 L 110.757812 268.308594 L 111.480469 268.171875 L 112.203125 268.027344 L 112.925781 267.875 L 113.648438 267.71875 L 114.375 267.546875 L 115.097656 267.378906 L 115.824219 267.199219 L 116.546875 267.015625 L 117.277344 266.824219 L 118.003906 266.628906 L 118.519531 266.484375 L 118.730469 266.425781 L 119.457031 266.226562 L 120.183594 266.023438 L 120.914062 265.820312 L 121.644531 265.609375 L 122.371094 265.398438 L 123.101562 265.1875 L 123.832031 264.972656 L 124.558594 264.753906 L 125.289062 264.539062 L 126.019531 264.320312 L 126.746094 264.097656 L 129.667969 263.207031 L 130.402344 262.984375 L 131.128906 262.761719 L 131.859375 262.539062 L 132.589844 262.320312 L 133.316406 262.105469 L 133.742188 261.976562 L 134.046875 261.875 L 134.78125 261.636719 L 135.515625 261.410156 L 136.242188 261.191406 L 137.703125 260.777344 L 138.425781 260.585938 L 139.152344 260.398438 L 139.875 260.21875 L 140.601562 260.042969 L 141.324219 259.882812 L 142.050781 259.726562 L 142.773438 259.570312 L 143.496094 259.421875 L 144.214844 259.277344 L 144.933594 259.136719 L 145.660156 259.007812 L 146.378906 258.875 L 147.101562 258.75 L 147.820312 258.621094 L 147.855469 258.617188 L 148.539062 258.527344 L 149.257812 258.433594 L 149.972656 258.347656 L 150.691406 258.261719 L 151.40625 258.175781 L 152.121094 258.101562 L 152.835938 258.035156 L 153.554688 257.972656 L 154.265625 257.921875 L 154.976562 257.875 L 155.6875 257.847656 L 156.398438 257.828125 L 157.109375 257.824219 L 157.816406 257.832031 L 158.523438 257.859375 L 159.226562 257.90625 L 159.925781 257.972656 L 160.027344 257.984375 L 160.628906 258.007812 L 161.339844 258.042969 L 162.046875 258.085938 L 162.75 258.132812 L 163.449219 258.191406 L 164.152344 258.257812 L 164.855469 258.335938 L 165.554688 258.425781 L 166.253906 258.53125 L 166.953125 258.65625 L 167.648438 258.804688 L 168.335938 258.976562 C 168.570312 259.035156 168.800781 259.101562 169.027344 259.171875 L 169.320312 259.269531 L 169.710938 259.371094 L 170.402344 259.558594 L 171.089844 259.753906 L 171.78125 259.949219 L 172.46875 260.148438 L 173.851562 260.5625 L 174.535156 260.777344 L 175.222656 261 L 175.90625 261.226562 L 176.59375 261.460938 C 177.042969 261.621094 177.277344 261.707031 177.277344 261.707031 C 177.277344 261.707031 177.023438 261.824219 176.535156 262.039062 L 175.796875 262.355469 L 175.058594 262.667969 L 174.320312 262.96875 L 173.582031 263.265625 L 172.113281 263.835938 L 171.375 264.113281 L 170.640625 264.386719 L 169.90625 264.652344 L 169.382812 264.839844 L 169.175781 264.894531 C 168.933594 264.964844 168.691406 265.042969 168.441406 265.132812 C 168.199219 265.214844 167.957031 265.300781 167.707031 265.402344 C 167.46875 265.492188 167.21875 265.597656 166.96875 265.703125 L 166.226562 266.023438 L 165.484375 266.367188 L 164.742188 266.714844 L 164 267.066406 L 163.257812 267.425781 L 162.515625 267.777344 L 161.773438 268.125 L 161.03125 268.460938 L 160.519531 268.683594 L 160.292969 268.773438 L 159.550781 269.089844 C 159.308594 269.199219 159.058594 269.3125 158.808594 269.433594 L 158.066406 269.792969 L 157.320312 270.179688 L 156.574219 270.570312 L 155.828125 270.976562 L 153.589844 272.21875 L 152.835938 272.632812 L 152.089844 273.042969 L 151.34375 273.445312 L 150.597656 273.839844 L 149.851562 274.21875 L 149.335938 274.476562 L 149.105469 274.613281 L 148.347656 275.066406 L 147.597656 275.523438 L 146.84375 275.976562 L 146.09375 276.429688 L 145.335938 276.882812 L 144.585938 277.332031 L 142.324219 278.691406 L 141.574219 279.148438 L 140.824219 279.601562 L 140.066406 280.058594 L 139.3125 280.511719 L 138.5625 280.964844 L 137.808594 281.417969 L 136.300781 282.332031 L 136.125 282.4375 L 135.550781 282.777344 L 134.792969 283.226562 L 134.042969 283.679688 L 133.289062 284.136719 L 132.53125 284.59375 L 131.78125 285.054688 L 131.027344 285.511719 L 130.269531 285.964844 L 129.519531 286.414062 L 128.769531 286.859375 L 128.019531 287.296875 L 127.265625 287.726562 L 126.515625 288.148438 L 125.769531 288.566406 L 125.023438 288.964844 L 124.277344 289.359375 L 123.53125 289.738281 L 122.789062 290.109375 L 122.046875 290.464844 L 121.304688 290.8125 L 120.902344 290.988281 L 120.5625 291.15625 L 119.820312 291.511719 L 119.078125 291.863281 L 118.335938 292.203125 L 117.59375 292.535156 L 116.855469 292.851562 L 116.117188 293.152344 L 115.378906 293.441406 L 114.644531 293.707031 L 113.910156 293.957031 L 113.183594 294.183594 L 112.472656 294.382812 L 112.457031 294.386719 L 111.722656 294.625 L 110.261719 295.09375 L 109.527344 295.320312 L 108.800781 295.542969 L 108.070312 295.75 L 107.34375 295.941406 L 106.621094 296.113281 L 105.894531 296.261719 C 105.65625 296.304688 105.421875 296.347656 105.175781 296.382812 C 104.9375 296.417969 104.699219 296.449219 104.457031 296.472656 C 104.21875 296.5 103.980469 296.523438 103.742188 296.539062 L 103.585938 296.546875 L 103.023438 296.652344 L 102.304688 296.769531 L 101.582031 296.871094 L 100.867188 296.957031 L 100.152344 297.027344 L 99.4375 297.085938 L 98.726562 297.128906 L 98.015625 297.160156 L 97.304688 297.175781 L 96.597656 297.179688 L 95.890625 297.175781 L 95.183594 297.164062 L 94.476562 297.136719 L 93.769531 297.101562 L 93.066406 297.058594 L 91.660156 296.941406 L 90.957031 296.871094 L 90.253906 296.792969 L 89.554688 296.710938 L 88.855469 296.621094 L 88.15625 296.527344 L 87.460938 296.425781 L 86.761719 296.320312 L 86.0625 296.210938 L 85.363281 296.097656 L 85.242188 296.078125 L 84.675781 295.910156 L 83.984375 295.710938 L 83.292969 295.507812 L 82.605469 295.308594 L 81.914062 295.105469 L 81.226562 294.902344 L 80.535156 294.703125 L 79.84375 294.5 L 79.15625 294.300781 L 78.464844 294.101562 L 77.777344 293.898438 L 76.394531 293.5 L 76.171875 293.433594 L 75.710938 293.261719 L 75.027344 292.992188 L 74.34375 292.699219 L 73.667969 292.394531 L 72.992188 292.078125 L 72.3125 291.746094 L 71.636719 291.40625 L 70.960938 291.058594 L 70.289062 290.714844 L 69.613281 290.367188 L 68.933594 290.023438 L 68.257812 289.6875 L 67.582031 289.359375 L 67.433594 289.289062 L 66.90625 289.023438 L 66.234375 288.683594 L 65.554688 288.34375 L 64.878906 287.996094 L 63.527344 287.316406 L 63.132812 287.121094 L 62.851562 286.933594 L 62.191406 286.480469 L 60.863281 285.566406 L 60.199219 285.113281 L 59.535156 284.65625 L 59.023438 284.308594 L 58.871094 284.199219 L 58.207031 283.726562 L 57.542969 283.257812 L 56.882812 282.785156 L 56.21875 282.3125 L 55.554688 281.84375 L 54.890625 281.371094 L 54.226562 280.902344 L 52.898438 279.957031 L 52.234375 279.488281 L 51.570312 279.015625 L 51.007812 278.617188 L 50.910156 278.542969 L 50.25 278.039062 L 49.59375 277.519531 L 48.933594 276.992188 L 48.28125 276.449219 L 47.625 275.902344 L 46.96875 275.339844 L 46.316406 274.765625 L 45.660156 274.1875 L 45.011719 273.601562 L 44.359375 273.011719 L 43.710938 272.410156 L 43.058594 271.808594 L 42.410156 271.203125 L 41.757812 270.59375 L 41.105469 269.980469 L 40.457031 269.367188 L 39.804688 268.757812 L 39.15625 268.144531 L 38.507812 267.535156 L 37.859375 266.929688 L 37.207031 266.328125 L 36.558594 265.734375 L 36.457031 265.640625 L 35.90625 265.140625 L 35.257812 264.527344 L 34.609375 263.90625 L 33.964844 263.265625 L 33.320312 262.609375 L 32.675781 261.9375 L 32.035156 261.257812 L 31.394531 260.5625 L 30.75 259.855469 L 30.109375 259.144531 L 29.472656 258.421875 L 28.835938 257.695312 L 28.199219 256.960938 L 27.558594 256.226562 L 25.648438 254.023438 L 25.011719 253.296875 L 24.375 252.578125 L 24.015625 252.171875 L 23.734375 251.867188 L 23.09375 251.160156 L 22.453125 250.4375 L 21.816406 249.710938 L 21.175781 248.972656 L 20.542969 248.226562 L 19.910156 247.46875 L 19.277344 246.699219 L 18.644531 245.925781 L 18.011719 245.132812 L 17.382812 244.339844 L 16.753906 243.539062 L 16.125 242.726562 L 15.496094 241.902344 L 14.875 241.074219 L 13.617188 239.386719 L 12.992188 238.53125 L 12.367188 237.671875 L 11.742188 236.804688 L 11.117188 235.929688 L 10.496094 235.054688 L 9.871094 234.171875 L 9.25 233.292969 L 8.625 232.410156 L 8.003906 231.527344 L 7.382812 230.648438 L 6.757812 229.769531 L 6.347656 229.199219 L 6.132812 228.894531 L 5.511719 227.996094 L 4.894531 227.09375 L 4.273438 226.191406 L 3.652344 225.273438 L 3.03125 224.351562 L 1.796875 222.492188 L 1.183594 221.546875 L 0.566406 220.589844 Z M 0.664062 220.542969 " fill-opacity="1" fill-rule="evenodd"/><path fill="#f58733" d="M 117.984375 174.007812 C 117.984375 187.890625 123.679688 200.445312 132.859375 209.464844 L 132.9375 209.414062 L 134 208.730469 C 134.394531 208.472656 134.796875 208.230469 135.199219 207.980469 L 136.351562 207.277344 L 137.523438 206.585938 L 138.6875 205.914062 L 139.863281 205.253906 L 141.050781 204.609375 L 142.234375 203.984375 L 143.464844 203.363281 L 144.660156 202.78125 L 145.890625 202.210938 L 147.109375 201.667969 L 148.363281 201.140625 L 149.597656 200.648438 L 150.851562 200.175781 C 151.269531 200.023438 151.6875 199.875 152.113281 199.734375 L 153.378906 199.3125 C 153.800781 199.179688 154.230469 199.046875 154.65625 198.921875 C 155.082031 198.792969 155.507812 198.675781 155.9375 198.558594 C 156.363281 198.445312 156.796875 198.332031 157.226562 198.226562 C 157.652344 198.121094 158.085938 198.023438 158.515625 197.925781 C 158.949219 197.832031 159.386719 197.742188 159.824219 197.65625 C 160.257812 197.570312 160.695312 197.492188 161.136719 197.421875 C 161.574219 197.347656 162.015625 197.277344 162.449219 197.214844 C 162.894531 197.148438 163.339844 197.09375 163.785156 197.046875 C 164.226562 196.992188 164.667969 196.949219 165.109375 196.910156 C 165.554688 196.871094 166 196.839844 166.449219 196.808594 C 166.898438 196.777344 167.347656 196.761719 167.792969 196.746094 C 168.246094 196.730469 168.695312 196.722656 169.144531 196.71875 C 169.59375 196.71875 170.046875 196.722656 170.496094 196.730469 C 170.953125 196.746094 171.40625 196.761719 171.859375 196.789062 C 172.328125 196.8125 172.792969 196.84375 173.257812 196.882812 L 173.46875 196.902344 L 173.875 196.910156 C 175.128906 196.96875 174.257812 196.902344 175.507812 197.027344 C 176.039062 197.082031 176.570312 197.148438 177.09375 197.230469 C 177.597656 197.308594 178.097656 197.394531 178.597656 197.496094 C 179.070312 197.585938 179.542969 197.691406 180.015625 197.804688 C 180.46875 197.910156 180.917969 198.027344 181.367188 198.144531 C 181.816406 198.265625 182.265625 198.390625 182.71875 198.523438 L 182.746094 198.53125 L 186.972656 199.71875 L 188.269531 200.316406 L 191.289062 201.699219 L 191.542969 201.820312 L 192.609375 202.324219 L 194.839844 203.375 L 196.117188 203.984375 L 196.582031 204.257812 L 197.546875 204.820312 L 199.164062 205.789062 L 200.007812 206.3125 L 201.054688 206.957031 L 202.125 207.613281 L 203.328125 208.378906 C 203.40625 208.429688 203.488281 208.484375 203.570312 208.535156 C 212.210938 199.59375 217.53125 187.414062 217.53125 174 C 217.53125 146.539062 195.25 124.277344 167.769531 124.277344 C 140.285156 124.277344 118.007812 146.539062 118.007812 174 Z M 117.984375 174.007812 " fill-opacity="1" fill-rule="evenodd"/><path fill="#eda169" d="M 219.988281 199.761719 C 218.832031 202.097656 217.53125 204.339844 216.121094 206.429688 L 215.671875 207.097656 L 216.117188 206.484375 L 217.199219 207.386719 L 221.175781 207.78125 C 221.605469 207.824219 222.035156 207.886719 222.464844 207.960938 L 223.359375 208.125 L 224.035156 208.265625 L 224.582031 208.371094 L 225.382812 208.535156 L 226.101562 208.691406 L 226.808594 208.859375 L 227.496094 209.027344 L 228.199219 209.207031 L 228.867188 209.382812 L 229.546875 209.566406 L 229.820312 209.644531 L 229.960938 209.679688 L 230.734375 209.882812 L 231.503906 210.105469 L 232.296875 210.347656 L 232.992188 210.566406 L 233.660156 210.785156 L 234.285156 210.996094 L 234.917969 211.210938 L 236.71875 211.820312 L 237.910156 212.222656 L 238.628906 212.460938 L 239.316406 212.703125 L 239.976562 212.9375 L 240.628906 213.175781 L 241.253906 213.40625 L 241.929688 213.660156 L 243.175781 214.136719 L 244.414062 214.617188 L 247.40625 215.785156 L 248.578125 216.238281 L 249.132812 216.453125 L 249.355469 216.542969 L 249.925781 216.769531 L 250.46875 216.988281 L 251.023438 217.207031 L 251.566406 217.414062 L 252.109375 217.617188 L 252.640625 217.8125 L 253.175781 218.003906 L 253.707031 218.1875 L 254.226562 218.367188 L 254.753906 218.542969 L 255.277344 218.707031 L 255.789062 218.871094 L 256.296875 219.023438 L 256.8125 219.171875 L 257.316406 219.316406 L 257.40625 219.335938 L 257.574219 219.050781 L 231.554688 204.003906 L 220.046875 199.742188 L 220.402344 198.945312 L 219.996094 199.765625 Z M 219.988281 199.761719 " fill-opacity="1" fill-rule="evenodd"/><path fill="#eda169" d="M 220.035156 199.738281 L 231.542969 204 L 238.582031 206.601562 L 242.738281 195.394531 L 230.304688 190.792969 L 224.207031 188.539062 L 224.027344 189.148438 L 223.597656 190.582031 C 222.875 193.019531 221.964844 195.449219 220.910156 197.800781 L 220.390625 198.953125 L 220.03125 199.746094 Z M 220.035156 199.738281 " fill-opacity="1" fill-rule="evenodd"/><path fill="#eda169" d="M 230.304688 190.789062 L 243.375 193.027344 L 245.398438 181.25 L 237.996094 179.980469 L 225.925781 177.910156 L 225.78125 179.316406 L 225.707031 180.027344 C 225.449219 182.507812 225.007812 185.0625 224.394531 187.613281 L 224.027344 189.136719 L 224.207031 188.527344 L 230.304688 190.78125 Z M 230.304688 190.789062 " fill-opacity="1" fill-rule="evenodd"/><path fill="#eda169" d="M 237.996094 179.984375 L 268.066406 179.984375 L 268.066406 168.03125 L 237.996094 168.03125 L 225.925781 170.101562 L 225.78125 168.691406 L 225.878906 170.15625 C 225.976562 171.632812 226.023438 172.855469 226.023438 174.007812 C 226.023438 175.160156 225.976562 176.386719 225.878906 177.859375 L 225.78125 179.324219 L 225.925781 177.917969 L 237.996094 179.988281 Z M 237.996094 179.984375 " fill-opacity="1" fill-rule="evenodd"/><path fill="#eda169" d="M 225.777344 168.695312 Z M 225.777344 168.695312 Z M 225.777344 168.695312 Z M 237.996094 168.03125 L 245.398438 166.761719 L 243.375 154.984375 L 231.417969 157.035156 L 224.253906 159.660156 L 224.058594 158.992188 L 224.394531 160.394531 C 225.007812 162.949219 225.449219 165.503906 225.707031 167.984375 L 225.78125 168.695312 L 225.78125 168.703125 L 225.878906 170.152344 C 225.976562 171.625 226.023438 172.851562 226.023438 174.003906 C 226.023438 175.15625 225.976562 176.382812 225.878906 177.855469 L 225.78125 179.320312 L 225.925781 177.914062 L 237.996094 179.984375 L 268.066406 179.984375 L 268.066406 168.03125 Z M 237.996094 168.03125 " fill-opacity="1" fill-rule="evenodd"/><path fill="#eda169" d="M 231.417969 157.035156 L 242.808594 152.859375 L 238.691406 141.640625 L 231.644531 144.222656 L 220.125 148.445312 L 220.464844 149.210938 L 220.992188 150.390625 C 222.035156 152.734375 222.929688 155.164062 223.65625 157.621094 L 224.0625 158.988281 L 224.257812 159.65625 L 231.421875 157.03125 Z M 231.417969 157.035156 " fill-opacity="1" fill-rule="evenodd"/><path fill="#eda169" d="M 220.121094 148.445312 L 231.640625 144.222656 L 257.707031 129.261719 L 251.75 118.894531 L 225.675781 133.863281 L 216.214844 141.683594 L 215.742188 141.03125 L 216.214844 141.742188 C 217.636719 143.859375 218.933594 146.113281 220.066406 148.414062 L 220.449219 149.199219 L 220.113281 148.441406 Z M 220.121094 148.445312 " fill-opacity="1" fill-rule="evenodd"/><path fill="#eda169" d="M 216.21875 141.6875 L 225.679688 133.867188 L 231.464844 129.082031 L 223.839844 119.878906 L 213.621094 128.328125 L 208.585938 132.492188 L 209 132.929688 L 210.050781 134.039062 C 211.820312 135.90625 213.472656 137.902344 214.972656 139.964844 L 215.75 141.039062 Z M 216.21875 141.6875 " fill-opacity="1" fill-rule="evenodd"/><path fill="#eda169" d="M 213.621094 128.320312 L 222.109375 118.136719 L 212.921875 110.484375 L 208.113281 116.253906 L 200.253906 125.679688 L 200.878906 126.132812 L 201.976562 126.929688 C 204.03125 128.425781 206.023438 130.089844 207.894531 131.871094 L 209 132.921875 L 208.585938 132.484375 Z M 213.621094 128.320312 " fill-opacity="1" fill-rule="evenodd"/><path fill="#eda169" d="M 200.253906 125.683594 L 208.113281 116.257812 L 223.175781 90.253906 L 212.824219 84.269531 L 197.765625 110.269531 L 193.5 121.765625 L 192.710938 121.410156 L 193.527344 121.8125 C 195.863281 122.96875 198.105469 124.269531 200.199219 125.675781 L 200.878906 126.132812 L 200.253906 125.679688 Z M 200.253906 125.683594 " fill-opacity="1" fill-rule="evenodd"/><path fill="#eda169" d="M 193.496094 121.765625 L 197.761719 110.269531 L 200.367188 103.234375 L 189.152344 99.082031 L 184.546875 111.511719 L 182.289062 117.601562 L 182.910156 117.785156 L 184.332031 118.207031 C 186.777344 118.929688 189.203125 119.839844 191.558594 120.894531 L 192.710938 121.414062 L 193.5 121.769531 Z M 193.496094 121.765625 " fill-opacity="1" fill-rule="evenodd"/><g clip-path="url(#c80de81bf2)"><path fill="#eda169" d="M 171.664062 115.882812 L 173.730469 103.824219 L 173.730469 73.777344 L 161.769531 73.777344 L 161.769531 103.820312 L 163.839844 115.882812 L 162.429688 116.03125 L 163.894531 115.933594 C 165.371094 115.839844 166.59375 115.792969 167.75 115.792969 C 168.902344 115.792969 170.128906 115.839844 171.605469 115.933594 L 173.074219 116.03125 Z M 171.664062 115.882812 " fill-opacity="1" fill-rule="evenodd"/></g><path fill="#eda169" d="M 173.730469 103.824219 L 171.664062 115.882812 L 173.074219 116.03125 L 173.78125 116.105469 C 176.261719 116.363281 178.820312 116.800781 181.375 117.417969 L 182.910156 117.785156 L 182.289062 117.601562 L 184.546875 111.511719 L 186.789062 98.449219 L 175.003906 96.429688 Z M 173.730469 103.824219 " fill-opacity="1" fill-rule="evenodd"/><path fill="#eda169" d="M 163.839844 115.882812 L 161.769531 103.820312 L 160.503906 96.425781 L 148.714844 98.445312 L 150.769531 110.394531 L 153.394531 117.550781 L 152.722656 117.75 L 154.128906 117.414062 C 156.6875 116.796875 159.242188 116.355469 161.726562 116.101562 L 162.4375 116.027344 L 163.84375 115.882812 Z M 163.839844 115.882812 " fill-opacity="1" fill-rule="evenodd"/><path fill="#eda169" d="M 137.941406 110.175781 L 122.960938 84.125 L 112.59375 90.078125 L 127.574219 116.125 L 135.402344 125.578125 L 134.753906 126.050781 L 135.460938 125.578125 C 137.582031 124.160156 139.835938 122.867188 142.140625 121.730469 L 142.9375 121.339844 L 142.167969 121.679688 L 137.941406 110.167969 Z M 137.941406 110.175781 " fill-opacity="1" fill-rule="evenodd"/><path fill="#eda169" d="M 127.574219 116.125 L 122.785156 110.347656 L 113.566406 117.96875 L 122.023438 128.179688 L 126.191406 133.214844 L 126.632812 132.796875 L 127.742188 131.75 C 129.613281 129.984375 131.605469 128.332031 133.675781 126.832031 L 134.753906 126.054688 L 135.402344 125.582031 L 127.574219 116.128906 Z M 127.574219 116.125 " fill-opacity="1" fill-rule="evenodd"/><path fill="#eda169" d="M 122.027344 128.179688 L 111.839844 119.695312 L 104.179688 128.875 L 109.953125 133.679688 L 119.390625 141.53125 L 119.828125 140.933594 L 120.644531 139.816406 C 122.140625 137.761719 123.804688 135.773438 125.585938 133.902344 L 126.636719 132.792969 L 126.199219 133.214844 Z M 122.027344 128.179688 " fill-opacity="1" fill-rule="evenodd"/><path fill="#eda169" d="M 119.386719 141.53125 L 109.949219 133.679688 L 83.925781 118.628906 L 77.9375 128.972656 L 103.957031 144.023438 L 115.464844 148.28125 L 115.105469 149.089844 L 115.519531 148.253906 C 116.675781 145.921875 117.976562 143.679688 119.382812 141.589844 L 119.828125 140.929688 L 119.390625 141.527344 Z M 119.386719 141.53125 " fill-opacity="1" fill-rule="evenodd"/><path fill="#eda169" d="M 115.464844 148.28125 L 103.957031 144.023438 L 96.921875 141.414062 L 92.765625 152.621094 L 105.203125 157.222656 L 111.296875 159.476562 L 111.480469 158.863281 L 111.902344 157.441406 C 112.628906 155.003906 113.53125 152.574219 114.59375 150.222656 L 115.105469 149.089844 Z M 115.464844 148.28125 " fill-opacity="1" fill-rule="evenodd"/><path fill="#eda169" d="M 105.199219 157.226562 L 92.121094 154.988281 L 90.101562 166.765625 L 97.5 168.035156 L 109.578125 170.105469 L 109.71875 168.695312 L 109.792969 167.988281 C 110.050781 165.503906 110.492188 162.949219 111.109375 160.398438 L 111.476562 158.871094 L 111.292969 159.488281 L 105.199219 157.230469 Z M 105.199219 157.226562 " fill-opacity="1" fill-rule="evenodd"/><path fill="#eda169" d="M 109.578125 170.101562 L 97.5 168.03125 L 67.4375 168.03125 L 67.4375 179.984375 L 97.503906 179.984375 L 109.578125 177.914062 L 109.71875 179.316406 L 109.625 177.859375 C 109.527344 176.386719 109.484375 175.164062 109.484375 174.007812 C 109.484375 172.855469 109.527344 171.632812 109.625 170.15625 L 109.71875 168.691406 Z M 109.578125 170.101562 " fill-opacity="1" fill-rule="evenodd"/><path fill="#eda169" d="M 109.578125 177.914062 L 97.503906 179.984375 L 90.105469 181.253906 L 92.125 193.03125 L 104.085938 190.980469 L 111.253906 188.355469 L 111.445312 189.011719 L 111.109375 187.621094 C 110.492188 185.066406 110.050781 182.515625 109.792969 180.035156 L 109.71875 179.324219 L 109.71875 179.316406 L 109.578125 177.917969 Z M 109.578125 177.914062 " fill-opacity="1" fill-rule="evenodd"/><path fill="#eda169" d="M 111.253906 188.355469 L 104.085938 190.980469 L 92.695312 195.15625 L 96.8125 206.375 L 103.863281 203.792969 L 115.382812 199.570312 L 115.042969 198.8125 L 114.515625 197.625 C 113.472656 195.28125 112.574219 192.851562 111.851562 190.398438 L 111.445312 189.015625 L 111.253906 188.359375 Z M 111.253906 188.355469 " fill-opacity="1" fill-rule="evenodd"/><path fill="#eda169" d="M 115.382812 199.570312 L 103.863281 203.792969 L 77.792969 218.761719 L 83.753906 229.121094 L 109.820312 214.152344 L 119.28125 206.328125 L 119.75 206.96875 L 119.277344 206.269531 C 117.859375 204.152344 116.5625 201.902344 115.425781 199.597656 L 115.039062 198.808594 L 115.378906 199.566406 Z M 115.382812 199.570312 " fill-opacity="1" fill-rule="evenodd"/><path fill="#eda169" d="M 119.28125 206.328125 L 109.820312 214.152344 L 104.035156 218.9375 L 109.578125 225.632812 L 110.460938 225.046875 L 111.46875 224.371094 L 112.480469 223.679688 L 113.496094 222.980469 L 114.523438 222.269531 L 115.558594 221.539062 L 116.597656 220.804688 L 117.640625 220.066406 L 120.328125 218.144531 L 120.859375 217.773438 L 121.90625 217.03125 L 124.035156 215.519531 L 125.113281 214.757812 L 125.746094 214.304688 L 125.449219 213.992188 C 123.683594 212.125 122.023438 210.132812 120.527344 208.0625 L 119.746094 206.984375 L 119.277344 206.339844 Z M 119.28125 206.328125 " fill-opacity="1" fill-rule="evenodd"/><path fill="#eda169" d="M 149.234375 105.953125 L 146.617188 98.828125 L 135.261719 103 L 139.886719 115.582031 L 142.171875 121.78125 L 142.730469 121.53125 L 144.140625 120.902344 C 146.515625 119.847656 148.976562 118.941406 151.457031 118.207031 L 152.746094 117.828125 L 153.519531 117.597656 L 149.234375 105.949219 Z M 149.234375 105.953125 " fill-opacity="1" fill-rule="evenodd"/></svg>